<svg width="351" height="113" viewBox="0 0 351 113" fill="none" xmlns="http://www.w3.org/2000/svg">
<g clip-path="url(#clip0_260_805)">
<path fill-rule="evenodd" clip-rule="evenodd" d="M81.93 104.36V96.66H74.22V33.41C74.22 31.45 74.15 29.68 74.01 28.06V27.37L73.94 27.42C73.23 20.83 71.14 16.8 67.01 12.24C61.76 6.46 51.1 0 51.1 0H41.03C33.8 3.8 27.91 8.11 23.26 13.16C18.62 18.21 15.4 23.97 15.4 34.06V96.66H7.69V104.36H0V112.07H89.64V104.36H81.93ZM69.12 108.15L70.77 110.45H66.55L68.2 108.15L68.66 107.51L68.2 106.87L66.55 104.57H70.77L69.12 106.87L68.66 107.51L69.12 108.15ZM45.28 106.88L43.63 104.58H47.85L46.2 106.88L45.74 107.52L46.2 108.16L47.85 110.46H43.63L45.28 108.16L45.74 107.52L45.28 106.88ZM52.54 96.66V94.54L54.85 96.2L55.49 96.66L56.13 96.2L58.38 94.58V96.66H52.54ZM50.71 58.65L53.39 59.86L54.16 60.21L53.67 60.74L52.09 62.47C51.84 61.18 51.42 59.91 50.71 58.65ZM54.85 70.97L55.49 71.43L56.13 70.97L58.37 69.36C58.37 69.9 58.37 70.46 58.37 71.03V73.51L56.12 71.89L55.48 71.43L54.84 71.89L52.53 73.55V69.31L54.84 70.97H54.85ZM58.38 86.26L56.13 84.64L55.49 84.18L54.85 84.64L52.54 86.3V82.06L54.85 83.72L55.49 84.18L56.13 83.72L58.38 82.1V86.26ZM58.38 93.23L55.49 95.31L52.54 93.19V87.64L55.49 85.52L58.38 87.6V93.23ZM58.38 80.76L55.49 82.83L52.54 80.71V74.89L55.49 72.77L58.38 74.85V80.75V80.76ZM55.49 70.09L52.53 67.96C52.52 67.15 52.5 66.37 52.44 65.62C52.42 65.06 52.37 64.51 52.32 63.96L54.57 61.5L57.95 63.03C58.2 64.52 58.31 66.16 58.36 68.03L55.5 70.09H55.49ZM54.93 60.55L54.16 60.2L54.65 59.66L56.2 57.97C56.2 57.97 56.23 58.01 56.24 58.04C56.58 58.63 56.85 59.23 57.09 59.84C57.34 60.46 57.52 61.12 57.68 61.79L54.92 60.54L54.93 60.55ZM53.76 58.9L49.67 57.05C49.43 56.73 49.18 56.41 48.9 56.09C48.38 55.5 47.86 54.95 47.35 54.44L48.54 52.54L52.99 53.92C53.87 54.79 54.75 55.8 55.54 56.94L53.76 58.89V58.9ZM48.65 51.64L47.73 51.35L47.4 51.88L46.4 53.49C45.27 52.4 44.25 51.52 43.45 50.88H49.34C49.75 51.15 50.53 51.72 51.47 52.51L48.65 51.63V51.64ZM45.74 57.06C47.76 59.12 50.02 63.17 50.02 67.23V96.65H41.46V67.23C41.46 61.25 45.74 57.06 45.74 57.06ZM47.09 107.51L49.2 104.58H54.11L56.22 107.51L54.11 110.44H49.2L47.09 107.51ZM57.1 108.15L57.56 107.51L57.1 106.87L55.45 104.57H59.67L58.02 106.87L57.56 107.51L58.02 108.15L59.67 110.45H55.45L57.1 108.15ZM58.9 107.51L61.01 104.58H65.21L67.32 107.51L65.21 110.44H61.01L58.9 107.51ZM71.2 21.15L67.77 19.72L66.87 19.34L66.5 19.82L64.96 21.86C64.41 20.43 63.71 19.04 62.85 17.67L65.96 18.96L66.86 19.34L67.22 18.85L68.86 16.69C69.83 18.13 70.6 19.58 71.19 21.14L71.2 21.15ZM72.91 33.4V33.74L70.59 32.07L69.95 31.61L69.31 32.07L66.97 33.75C66.94 32.18 66.85 30.69 66.69 29.27L69.31 31.15L69.95 31.61L70.59 31.15L72.8 29.56C72.87 30.75 72.91 32.02 72.91 33.39V33.4ZM72.91 46.88L70.59 45.21L69.95 44.75L69.31 45.21L66.99 46.88V42.63L69.31 44.3L69.95 44.76L70.59 44.3L72.91 42.63V46.88ZM72.91 60.02L70.59 58.35L69.95 57.89L69.31 58.35L66.99 60.02V55.77L69.31 57.44L69.95 57.9L70.59 57.44L72.91 55.77V60.02ZM72.91 73.16L70.59 71.49L69.95 71.03L69.31 71.49L66.99 73.16V68.91L69.31 70.57L69.95 71.03L70.59 70.57L72.91 68.91V73.16ZM72.91 86.3L70.59 84.63L69.95 84.17L69.31 84.63L66.99 86.3V82.05L69.31 83.72L69.95 84.18L70.59 83.72L72.91 82.05V86.3ZM67 96.65V94.53L69.32 96.19L69.96 96.65L70.6 96.19L72.92 94.53V96.65H67.01H67ZM72.91 93.18L69.96 95.3L67.01 93.18V87.64L69.96 85.52L72.91 87.64V93.18ZM72.91 80.71L69.96 82.83L67.01 80.71V74.51L69.96 72.39L72.91 74.51V80.71ZM72.91 67.57L69.96 69.69L67.01 67.57V61.37L69.96 59.25L72.91 61.37V67.57ZM72.91 54.43L69.96 56.55L67.01 54.43V48.23L69.96 46.11L72.91 48.23V54.43ZM72.91 41.29L69.96 43.41L67.01 41.29V35.39C67.01 35.29 67.01 35.19 67.01 35.09L69.97 32.97L72.92 35.09V41.29H72.91ZM69.96 30.27L66.51 27.79C66.28 26.27 65.96 24.83 65.52 23.43L67.66 20.6L71.59 22.24C72.16 24.04 72.52 26.01 72.72 28.29L69.96 30.27ZM66.03 13.12C66.77 13.93 67.43 14.73 68.03 15.52L66.1 18.08L62.01 16.37C61.2 15.23 60.28 14.09 59.21 12.95L59.72 10.36L63.53 10.64C64.44 11.47 65.3 12.3 66.04 13.11L66.03 13.12ZM49.8 5.03L50.46 3.13L54.75 3.93C55.68 4.56 56.69 5.27 57.74 6.04L57.28 8.36L53.85 8.11C52.41 6.94 51.05 5.93 49.8 5.05V5.03ZM57.53 9.37L58.48 9.44L58.59 8.92L58.98 6.95C60.16 7.84 61.35 8.78 62.48 9.74L59.43 9.51L58.48 9.44L58.38 9.96L58.02 11.76C57.4 11.15 56.75 10.53 56.04 9.92C55.75 9.67 55.46 9.44 55.18 9.19L57.54 9.37H57.53ZM50.72 1.3C51.09 1.53 51.77 1.96 52.65 2.53L50.35 2.1L49.43 1.93L49.25 2.44L48.63 4.23C46.69 2.93 45.03 1.97 43.77 1.3H50.72ZM25.87 25.03C27.05 20.94 30.63 16.53 34.01 13.15C37.39 9.77 44.36 5.55 44.36 5.55C51.28 9.32 56.72 14.66 59.78 18.95C62.83 23.24 63.89 27.69 63.89 33.69V39.79C62.83 37.68 61 34.71 58.09 31.91C52.61 26.63 47.44 23.9 47.44 23.9H39.68C39.68 23.9 31.57 28.81 28.28 32.48C26.83 34.09 25.71 35.34 24.78 36.86C24.78 31.09 24.83 28.69 25.88 25.04L25.87 25.03ZM17.49 101.16L15.41 104.06V98.27L17.49 101.16ZM18.38 101.8L18.84 101.16L18.38 100.52L16.54 97.96H21.14L19.3 100.52L18.84 101.16L19.3 101.8L21.14 104.35H16.54L18.38 101.8ZM22.27 82.03L24.62 83.72L25.26 84.18L25.9 83.72L28.22 82.05V86.31L25.9 84.64L25.26 84.18L24.62 84.64L22.27 86.33V82.04V82.03ZM22.27 69.72L24.62 71.41L25.26 71.87L25.9 71.41L28.22 69.74V74.01L25.9 72.33L25.26 71.87L24.62 72.33L22.27 74.02V69.73V69.72ZM22.27 57.41L24.62 59.1L25.26 59.56L25.9 59.1L28.22 57.43V61.69L25.9 60.02L25.26 59.56L24.62 60.02L22.27 61.71V57.42V57.41ZM20.18 101.16L22.26 98.27V104.06L20.18 101.16ZM22.27 87.66L25.25 85.52L28.21 87.65V93.18L25.25 95.31L22.27 93.16V87.66ZM25.25 82.82L22.27 80.68V75.35L25.25 73.2L28.21 75.33V80.69L25.25 82.82ZM25.25 70.51L22.27 68.37V63.04L25.25 60.89L28.21 63.02V68.38L25.25 70.51ZM25.25 58.2L22.27 56.06V55.63C22.27 55.13 22.27 54.64 22.27 54.15C22.27 52.86 22.25 51.6 22.31 50.32L25.4 48.36L28.24 50.69C28.24 50.95 28.23 51.21 28.23 51.46V56.07L25.27 58.2H25.25ZM28.29 49.25L26.15 47.49L25.58 47.02L24.88 47.47L22.38 49.05C22.48 47.73 22.68 46.37 23.02 44.93L25 46.55L25.57 47.02L26.27 46.58L28.92 44.9C28.58 46.41 28.38 47.88 28.29 49.25ZM25.75 45.68L23.33 43.7C23.74 42.27 24.2 41 24.76 39.81C25.17 38.93 25.65 38.08 26.19 37.24L29.81 36.03L31.47 38.25C30.49 39.98 29.79 41.73 29.3 43.44L25.74 45.69L25.75 45.68ZM32.16 37.1L30.85 35.35L30.46 34.82L29.62 35.1L27.07 35.96C27.7 35.11 28.41 34.25 29.23 33.34C29.28 33.27 29.35 33.21 29.42 33.14L30.14 34.32L30.45 34.83L31.37 34.56L34.9 33.55C33.82 34.71 32.91 35.9 32.15 37.1H32.16ZM36.1 32.33L31.34 33.69L30.41 32.16C31.73 30.94 33.41 29.66 35.02 28.51L38.75 27.7L39.24 29.48C38.2 30.34 37.14 31.3 36.1 32.33ZM40.5 28.47L40.14 27.16L39.98 26.53L38.91 26.76L36.94 27.19C38.34 26.25 39.5 25.51 40.03 25.19H45.19C43.95 25.97 42.3 27.07 40.5 28.47ZM25.25 96.64H22.27V94.5L24.62 96.18L25.26 96.64L25.9 96.18L28.22 94.51V96.64H25.26H25.25ZM31.18 65.28V53.11C31.18 46.58 31.9 42.1 36.25 36.98C40.59 31.86 44.14 29.92 44.14 29.92C44.14 29.92 49.1 33.17 52.6 37.83C56.11 42.49 57.09 46.06 57.09 54.78V56.92C54.29 52.42 49.72 49.57 49.72 49.57H41.72C34.48 54.62 31.79 60.15 31.18 65.28ZM41.02 104.57H42.27L44.38 107.5L42.27 110.43H41.02V104.56V104.57ZM74.06 110.44H72.1L69.99 107.51L72.1 104.58H74.06V110.45V110.44Z" fill="#9F8B53"/>
<path fill-rule="evenodd" clip-rule="evenodd" d="M123.2 55.92L124.63 55.1C124.97 56.31 125.79 57.45 127.06 58.51C128.33 59.57 129.56 60.1 130.75 60.1H131.49C133.02 60.1 134.25 59.72 135.16 58.95C136.07 58.18 136.53 57.19 136.53 55.97C136.53 55.59 136.44 55.07 136.27 54.41C136.09 53.74 135.7 53.14 135.07 52.61C134.45 52.08 133.36 51.52 131.79 50.94L130.83 50.64L122.84 48.43C122.49 48.31 122.14 48.16 121.8 47.97C121.45 47.78 120.84 47.34 119.98 46.65C119.11 45.95 118.68 44.85 118.68 43.35C118.68 42.02 119.19 40.64 120.2 39.23C121.21 37.81 122.47 36.64 123.95 35.71C125.44 34.78 126.77 34.09 127.95 33.62C129.12 33.16 130.33 32.8 131.57 32.53C132.82 32.27 133.95 32.14 134.96 32.14C136.96 32.14 138.5 32.5 139.57 33.23C140.64 33.95 141.17 34.66 141.17 35.36C141.17 35.74 141.03 36.02 140.74 36.23L139.22 37.14L135.62 39.14L135.05 38.36C133.58 36.59 131.94 35.71 130.14 35.71H129.62C129.39 35.76 129.01 35.84 128.49 35.92C127.97 36.01 127.42 36.25 126.86 36.63C126.29 37.03 125.89 37.53 125.64 38.15C125.39 38.77 125.27 39.3 125.27 39.74C125.27 40.61 125.66 41.4 126.45 42.13C127.23 42.85 128.46 43.54 130.14 44.17L130.49 44.26L137.4 46.13C139.31 46.65 140.76 47.4 141.74 48.36C142.72 49.33 143.22 50.46 143.22 51.77C143.22 52.64 143.02 53.48 142.63 54.31C142.24 55.13 141.68 55.97 140.96 56.83C140.23 57.68 139.42 58.53 138.5 59.37C137.59 60.21 136.41 61.08 134.96 62C133.51 62.91 131.97 63.55 130.34 63.91C128.7 64.27 127.28 64.45 126.06 64.45C123.4 64.45 121.44 63.9 120.18 62.8C118.92 61.7 118.29 60.86 118.29 60.28C118.29 59.7 118.66 59.14 119.39 58.52C120.13 57.9 121.39 57.04 123.19 55.94L123.2 55.92Z" fill="#9F8B53"/>
<path fill-rule="evenodd" clip-rule="evenodd" d="M143.63 47.41L143.02 46.5L145.45 45.11C146.38 44.47 147.35 43.81 148.38 43.11C149.41 42.42 150.05 41.95 150.31 41.72C150.6 41.54 150.89 41.46 151.18 41.46C151.27 41.46 151.52 41.5 151.92 41.59C152.33 41.68 152.65 41.97 152.9 42.48C153.15 42.99 153.27 43.88 153.27 45.15L153.57 52.2L153.74 60.2C152.81 60.72 151.8 61.38 150.7 62.16C149.6 62.95 148.56 63.7 147.57 64.42L147.48 56.98C147.48 53.09 147.32 50.45 147 49.06C146.68 47.67 146.09 46.97 145.22 46.97C144.9 46.97 144.5 47.06 144.01 47.23L143.62 47.4L143.63 47.41ZM145.72 37.9L145.46 37.34C146.68 36.24 147.94 35.24 149.24 34.34L150.67 33.43L151.32 34.13C151.95 34.88 152.47 35.41 152.86 35.71C153.25 36.01 153.77 36.25 154.4 36.42L150.53 39.42C150.15 39.74 149.6 39.9 148.88 39.9C148.59 39.9 148.24 39.86 147.84 39.77C147.44 39.68 147.08 39.51 146.78 39.25C146.48 38.99 146.12 38.54 145.72 37.9Z" fill="#9F8B53"/>
<path fill-rule="evenodd" clip-rule="evenodd" d="M154.49 34.34L154.14 33.6L158.62 30.43L158.88 30.25L160.04 29.43L160.9 28.86C161.33 28.63 161.76 28.51 162.19 28.51C162.97 28.51 163.42 28.74 163.55 29.2C163.68 29.67 163.76 30.01 163.79 30.25C163.82 30.48 163.84 30.74 163.88 31.03V33.21C163.88 33.67 163.96 36.22 164.12 40.84C164.28 45.46 164.36 48.83 164.36 50.95L164.53 54.43L164.71 57.04V60.36C163.77 60.89 162.75 61.52 161.65 62.26C160.55 63 159.5 63.72 158.5 64.42L158.63 62.55V57.03C158.63 54.47 158.57 52.15 158.48 50.06C158.37 47.97 158.27 45.58 158.15 42.89C158.03 40.2 157.98 38.38 157.98 37.42L157.76 35.5C157.59 34.43 157.1 33.89 156.28 33.89C155.93 33.89 155.47 33.98 154.89 34.15L154.5 34.33L154.49 34.34Z" fill="#9F8B53"/>
<path fill-rule="evenodd" clip-rule="evenodd" d="M165.2 34.34L164.86 33.6L169.33 30.43L169.59 30.26L170.75 29.44L171.61 28.87C172.04 28.64 172.47 28.52 172.9 28.52C173.67 28.52 174.13 28.75 174.26 29.21C174.39 29.68 174.47 30.02 174.5 30.26C174.53 30.49 174.56 30.75 174.59 31.04V33.22C174.59 33.68 174.67 36.23 174.83 40.85C174.99 45.47 175.07 48.84 175.07 50.96L175.24 54.44L175.42 57.05V60.37C174.48 60.9 173.45 61.53 172.36 62.27C171.26 63.01 170.21 63.73 169.21 64.43L169.34 62.56V57.04C169.34 54.48 169.29 52.16 169.19 50.07C169.09 47.98 168.98 45.59 168.86 42.9C168.74 40.21 168.69 38.39 168.69 37.43L168.47 35.51C168.3 34.44 167.81 33.9 166.99 33.9C166.64 33.9 166.18 33.99 165.6 34.16L165.21 34.34H165.2ZM178.75 56.09L176.06 52.66L179.58 49.79C179.78 49.62 179.96 49.45 180.12 49.29C180.28 49.13 180.5 48.85 180.8 48.44C181.09 48.03 181.23 47.64 181.23 47.27C181.23 46.37 180.75 45.79 179.8 45.51C178.84 45.24 178.22 45.12 177.93 45.14L180.84 42.93L182.02 41.98L183.19 41.02L184.19 41.15C185.06 41.35 185.95 41.72 186.88 42.24C187.81 42.76 188.27 43.36 188.27 44.02C188.27 44.8 187.62 45.74 186.31 46.84L182.01 50.49L186.22 55.23C187.47 56.65 188.42 57.63 189.09 58.18C189.75 58.73 190.33 59 190.82 59C190.91 59 191.1 58.97 191.39 58.91L191.91 59.78L188.18 62.78C187.86 63.04 187.54 63.28 187.23 63.5C186.91 63.71 186.58 63.82 186.23 63.82C185.42 63.82 183.71 62.22 181.11 59L178.77 56.09H178.75Z" fill="#9F8B53"/>
<path fill-rule="evenodd" clip-rule="evenodd" d="M203.85 37.64L200.68 37.81L202.02 36.51L203.37 35.21L204.71 33.95L206.01 32.69C207.14 32.46 208.12 32.28 208.94 32.14C209.77 32.01 210.58 31.95 211.4 31.95C215.07 31.95 217.53 32 218.78 32.12C220.03 32.24 221.3 32.5 222.6 32.9C223.9 33.31 225.21 34.07 226.53 35.18C227.85 36.29 228.51 37.7 228.51 39.41C228.51 41.29 227.93 42.77 226.77 43.82C225.61 44.87 224.89 45.52 224.62 45.75C224.35 45.98 223.92 46.29 223.34 46.66L222.56 47.14L223.3 48.27L223.65 48.79L225.21 51.18L226.73 53.57L227.94 55.3C229.21 56.95 230.12 58.05 230.67 58.6C231.22 59.15 231.67 59.43 232.02 59.43C232.13 59.43 232.31 59.4 232.54 59.34L233.28 60.08L232.24 60.73L227.81 63.6L227.55 63.77C227.2 63.94 226.85 64.03 226.51 64.03C225.7 64.03 224.75 63.39 223.67 62.12C222.58 60.85 221.22 58.85 219.59 56.15C217.95 53.44 216.71 50.92 215.88 48.57L218.75 47.05L219.53 46.57C221.18 45.32 222.01 43.92 222.01 42.35C222.01 41.08 221.53 39.96 220.58 39.01C219.63 38.05 218.61 37.48 217.54 37.3C216.47 37.11 215.74 37 215.37 36.97C214.99 36.94 214.63 36.93 214.28 36.93H213.15V57.35L213.37 60.05L211.55 61.22L209.77 62.44L208.21 63.53L206.6 64.62L206.73 61.28C206.73 57.66 206.74 54.13 206.77 50.69C206.8 47.25 206.84 43.59 206.9 39.71V37.59L203.86 37.63L203.85 37.64Z" fill="#9F8B53"/>
<path fill-rule="evenodd" clip-rule="evenodd" d="M237.5 48.71C237.79 48.48 238.15 48.22 238.57 47.93C238.99 47.64 239.43 47.36 239.89 47.1L239.37 48.76C238.97 49.95 238.76 51 238.76 51.9C238.76 52.57 238.98 53.66 239.43 55.19C239.88 56.71 241.07 58.03 243.02 59.13L243.84 59.56C244.39 59.79 244.9 59.91 245.36 59.91C247.1 59.91 248.08 58.76 248.31 56.47C248.31 55.4 248.23 54.46 248.07 53.66C247.91 52.86 247.48 51.81 246.77 50.48C246.06 49.16 245.07 48.07 243.82 47.21C242.56 46.35 241.18 45.92 239.68 45.92H238.59L237.68 46.27L237.51 45.49C238.09 45 239.18 44.27 240.79 43.3C242.39 42.33 244.01 41.84 245.63 41.84C246.36 41.84 247.07 41.98 247.78 42.27C248.49 42.56 249.17 42.96 249.84 43.46C250.5 43.97 251.06 44.51 251.51 45.11C251.96 45.7 252.42 46.57 252.9 47.73C253.38 48.89 253.61 50.13 253.61 51.46C253.61 52.93 253.25 54.35 252.55 55.72C251.84 57.1 250.31 58.88 247.97 61.1C245.62 63.31 243.26 64.42 240.89 64.42C238.83 64.42 237.04 63.43 235.5 61.44C233.96 59.46 233.2 57.47 233.2 55.47C233.2 54.11 233.47 52.99 234.02 52.13C234.57 51.26 235.73 50.12 237.49 48.7L237.5 48.71Z" fill="#9F8B53"/>
<path fill-rule="evenodd" clip-rule="evenodd" d="M264.25 51.45L265.81 51.11L265.29 50.24C263.64 47.73 262.08 46.48 260.6 46.48C260.1 46.48 259.58 46.64 259.03 46.96L258.68 46.44L261.72 43.93C263.52 42.46 264.79 41.72 265.54 41.72C266.43 41.72 267.67 42.75 269.25 44.8C270.83 46.85 272.29 48.99 273.62 51.21C274.95 53.42 276.48 56.23 278.22 59.61L278.79 60.69L273.4 64.43C273.28 64.02 273.13 63.59 272.92 63.12C272.72 62.66 272.35 61.87 271.83 60.76C271.31 59.65 270.62 58.62 269.74 57.66C268.87 56.7 267.99 56.01 267.09 55.59C266.19 55.17 265.48 54.88 264.94 54.74C264.41 54.6 263.83 54.49 263.2 54.42C262.58 54.35 262.15 54.31 261.92 54.31C261.46 54.31 260.97 54.35 260.47 54.44C259.96 54.53 259.56 54.74 259.25 55.07C258.95 55.4 258.8 55.79 258.8 56.22C258.8 56.34 258.87 56.6 259.01 57.02C259.15 57.44 259.63 57.93 260.44 58.5C261.25 59.06 262.05 59.39 262.85 59.5C263.65 59.6 264.19 59.65 264.48 59.65C265.52 59.65 266.58 59.42 267.65 58.95L268.21 59.55L268.12 59.64L265.99 61.62C264.89 62.65 263.95 63.38 263.19 63.8C262.42 64.22 261.59 64.42 260.69 64.42H260.17C259.91 64.36 259.28 64.28 258.28 64.18C257.28 64.08 256.28 63.62 255.28 62.79C254.28 61.97 253.78 61 253.78 59.87C253.78 59.15 253.99 58.41 254.41 57.66C254.83 56.91 255.41 56.16 256.17 55.41C256.92 54.66 257.83 53.97 258.91 53.34C259.98 52.71 261.26 52.19 262.73 51.78L263.34 51.65L264.21 51.43L264.25 51.45Z" fill="#9F8B53"/>
<path fill-rule="evenodd" clip-rule="evenodd" d="M277.89 38.98L278.28 38.59L283.92 34.34L284.66 34.86C284.17 35.3 283.92 35.77 283.92 36.3C283.92 36.83 284.2 37.38 284.77 37.97C285.34 38.57 286.06 39.09 286.94 39.56C287.82 40.03 288.87 40.51 290.09 41.02C291.31 41.53 292.65 42.06 294.13 42.63C295.61 43.19 296.63 43.62 297.19 43.91C297.75 44.2 298.65 44.84 299.9 45.82C301.15 46.8 301.77 48.39 301.77 50.56C301.77 51.84 301.49 53.03 300.92 54.15C300.36 55.27 299.74 56.23 299.05 57.04C298.37 57.85 297.6 58.65 296.73 59.43C295.86 60.21 295.18 60.8 294.69 61.19C294.2 61.58 293.53 62.06 292.67 62.63C291.82 63.2 290.99 63.64 290.17 63.96C289.36 64.28 288.52 64.44 287.65 64.44C286.47 64.44 285.35 64.17 284.31 63.64C283.27 63.1 282.2 62.12 281.12 60.68C280.03 59.24 279.49 57.61 279.49 55.78C279.49 52.82 281.08 50.35 284.27 48.38L285.75 47.64L286.27 47.98C285.49 49.26 285.09 50.64 285.09 52.15C285.09 52.64 285.15 53.17 285.27 53.73C285.39 54.3 285.51 54.74 285.64 55.06C285.77 55.38 286.15 56.05 286.79 57.08C287.43 58.11 288.14 58.79 288.94 59.12C289.74 59.45 290.36 59.66 290.81 59.75C291.26 59.84 291.61 59.88 291.88 59.88C292.89 59.88 293.76 59.58 294.48 58.97C295.2 58.36 295.64 57.7 295.78 56.97C295.92 56.24 296 55.64 296 55.15V54.5C295.94 54.21 295.85 53.61 295.74 52.7C295.62 51.79 295.1 50.8 294.18 49.75C293.26 48.69 292.15 47.87 290.88 47.3C289.61 46.72 288.86 46.39 288.64 46.3C288.42 46.21 287.18 45.76 284.93 44.95C282.67 44.14 281.06 43.54 280.09 43.15C279.12 42.76 278.4 42.37 277.92 41.98C277.44 41.59 277.2 41.12 277.2 40.57C277.2 40.08 277.43 39.55 277.9 39L277.89 38.98Z" fill="#9F8B53"/>
<path fill-rule="evenodd" clip-rule="evenodd" d="M123.2 98.03L124.63 97.21C124.97 98.43 125.79 99.56 127.06 100.62C128.33 101.68 129.56 102.21 130.75 102.21H131.49C133.02 102.21 134.25 101.82 135.16 101.06C136.07 100.29 136.53 99.3 136.53 98.09C136.53 97.71 136.44 97.19 136.27 96.52C136.09 95.86 135.7 95.25 135.07 94.72C134.45 94.18 133.36 93.63 131.79 93.05L130.83 92.74L122.84 90.53C122.49 90.42 122.14 90.26 121.8 90.07C121.45 89.89 120.84 89.44 119.98 88.74C119.11 88.05 118.68 86.95 118.68 85.44C118.68 84.11 119.19 82.73 120.2 81.31C121.21 79.89 122.47 78.72 123.95 77.79C125.44 76.86 126.77 76.17 127.95 75.71C129.12 75.25 130.33 74.88 131.57 74.62C132.82 74.36 133.95 74.22 134.96 74.22C136.96 74.22 138.5 74.58 139.57 75.31C140.64 76.03 141.17 76.74 141.17 77.43C141.17 77.81 141.03 78.1 140.74 78.3L139.22 79.22L135.62 81.22L135.05 80.44C133.58 78.67 131.94 77.79 130.14 77.79H129.62C129.39 77.85 129.01 77.92 128.49 78.01C127.97 78.1 127.42 78.33 126.86 78.72C126.29 79.11 125.89 79.62 125.64 80.24C125.39 80.86 125.27 81.39 125.27 81.83C125.27 82.7 125.66 83.49 126.45 84.22C127.23 84.95 128.46 85.63 130.14 86.26L130.49 86.35L137.4 88.22C139.31 88.74 140.76 89.48 141.74 90.45C142.72 91.42 143.22 92.56 143.22 93.86C143.22 94.73 143.02 95.58 142.63 96.4C142.24 97.23 141.68 98.07 140.96 98.92C140.23 99.77 139.42 100.62 138.5 101.46C137.59 102.3 136.41 103.18 134.96 104.08C133.51 104.99 131.97 105.63 130.34 105.99C128.7 106.35 127.28 106.53 126.06 106.53C123.4 106.53 121.44 105.98 120.18 104.88C118.92 103.78 118.29 102.94 118.29 102.36C118.29 101.81 118.66 101.22 119.39 100.6C120.13 99.98 121.39 99.12 123.19 98.01L123.2 98.03Z" fill="#9F8B53"/>
<path fill-rule="evenodd" clip-rule="evenodd" d="M153.84 93.57L155.41 93.22L154.89 92.36C153.24 89.85 151.68 88.59 150.2 88.59C149.71 88.59 149.18 88.75 148.63 89.07L148.29 88.55L151.33 86.04C153.12 84.57 154.4 83.83 155.15 83.83C156.05 83.83 157.29 84.86 158.86 86.92C160.44 88.97 161.89 91.11 163.22 93.32C164.55 95.53 166.08 98.34 167.82 101.72L168.39 102.81L163 106.54C162.89 106.13 162.73 105.7 162.52 105.23C162.32 104.77 161.95 103.98 161.43 102.88C160.91 101.78 160.22 100.75 159.35 99.79C158.48 98.83 157.6 98.14 156.7 97.72C155.81 97.3 155.09 97.02 154.55 96.87C154.01 96.73 153.44 96.62 152.81 96.54C152.19 96.47 151.76 96.43 151.53 96.43C151.07 96.43 150.58 96.47 150.08 96.56C149.57 96.65 149.17 96.86 148.87 97.19C148.57 97.52 148.41 97.9 148.41 98.34C148.41 98.46 148.48 98.72 148.63 99.15C148.78 99.57 149.25 100.06 150.07 100.63C150.88 101.19 151.68 101.53 152.48 101.63C153.27 101.73 153.82 101.78 154.1 101.78C155.14 101.78 156.2 101.55 157.27 101.09L157.83 101.69L157.74 101.78L155.61 103.76C154.51 104.79 153.58 105.52 152.81 105.94C152.04 106.35 151.21 106.56 150.31 106.56H149.79C149.53 106.5 148.9 106.42 147.9 106.32C146.9 106.22 145.9 105.76 144.9 104.94C143.9 104.12 143.4 103.15 143.4 102.02C143.4 101.3 143.61 100.56 144.03 99.81C144.45 99.06 145.03 98.31 145.79 97.56C146.54 96.81 147.45 96.12 148.52 95.48C149.59 94.85 150.87 94.33 152.34 93.93L152.95 93.8L153.82 93.58L153.84 93.57Z" fill="#9F8B53"/>
<path fill-rule="evenodd" clip-rule="evenodd" d="M166.92 89.78L166.14 88.78L168.96 86.92L172.05 84.71L172.4 84.45C172.66 84.22 173.01 84.07 173.44 84.02C174.11 83.87 174.65 84.12 175.07 84.78C175.49 85.43 175.8 86.66 176 88.45L176.04 89.01L176.48 93.83L176.57 94.96L179.39 91.63C180.23 90.7 181.11 89.77 182.02 88.84C182.93 87.9 183.73 87.11 184.43 86.46C185.13 85.81 185.67 85.3 186.08 84.92C186.49 84.54 186.8 84.27 187.04 84.1C187.27 83.93 187.52 83.84 187.78 83.84C188.3 83.84 188.83 84.07 189.37 84.54C189.91 85 190.29 85.68 190.52 86.58C190.9 87.79 191.2 88.98 191.43 90.14C191.66 91.3 191.78 92.56 191.78 93.92L191.86 95.18C193.48 93.07 194.99 91.27 196.4 89.77C197.8 88.28 198.86 87.18 199.59 86.49C200.32 85.8 200.92 85.25 201.41 84.86C201.91 84.47 202.34 84.2 202.71 84.06C203.09 83.91 203.42 83.84 203.71 83.84C204.69 83.84 205.33 84.23 205.62 84.99C205.91 85.76 206.2 86.81 206.49 88.15C206.78 89.48 206.97 90.45 207.08 91.06C207.18 91.67 207.3 92.4 207.43 93.24C207.56 94.08 207.66 94.79 207.71 95.37L208.02 98.11L208.28 100.55L208.5 102.73C206.76 103.78 205.2 104.82 203.81 105.86L202.94 106.55L202.68 103.9C202.3 100.75 201.99 98.46 201.75 97.04C201.5 95.62 201.18 94.34 200.79 93.2C200.4 92.06 199.74 91.49 198.82 91.49C198.32 91.49 197.78 91.7 197.17 92.12C196.56 92.54 195.87 93.16 195.09 93.99C194.3 94.81 193.51 95.75 192.7 96.81C191.89 97.87 191.16 98.92 190.51 99.98C189.86 101.04 189.2 102.14 188.53 103.3L187.75 104.77L186.88 104.6L186.71 102.6C186.51 100.46 186.35 98.99 186.23 98.21C186.12 97.43 185.87 96.19 185.5 94.5C185.12 92.81 184.38 91.96 183.29 91.96C182.86 91.96 182.39 92.12 181.9 92.44L180.94 93.14C179.87 94.07 178.99 94.94 178.29 95.75C177.6 96.56 176.75 97.71 175.75 99.2C174.75 100.69 173.94 102.02 173.32 103.17C172.7 104.33 172.16 105.46 171.69 106.56H170.39L170.43 104.35V97.58C170.43 94.92 170.33 93.14 170.13 92.24C169.93 91.34 169.59 90.63 169.11 90.09C168.63 89.55 168.2 89.29 167.83 89.29C167.48 89.29 167.19 89.46 166.96 89.81L166.92 89.78Z" fill="#9F8B53"/>
<path fill-rule="evenodd" clip-rule="evenodd" d="M220.55 93.57L222.11 93.22L221.59 92.36C219.94 89.85 218.38 88.59 216.9 88.59C216.41 88.59 215.89 88.75 215.34 89.07L214.99 88.55L218.03 86.04C219.83 84.57 221.1 83.83 221.85 83.83C222.75 83.83 223.98 84.86 225.56 86.92C227.14 88.97 228.59 91.11 229.92 93.32C231.25 95.53 232.79 98.34 234.53 101.72L235.09 102.81L229.71 106.54C229.59 106.13 229.43 105.7 229.23 105.23C229.02 104.77 228.66 103.98 228.14 102.88C227.62 101.78 226.92 100.75 226.05 99.79C225.18 98.83 224.3 98.14 223.4 97.72C222.5 97.3 221.79 97.02 221.25 96.87C220.71 96.73 220.13 96.62 219.51 96.54C218.89 96.47 218.46 96.43 218.23 96.43C217.76 96.43 217.28 96.47 216.77 96.56C216.27 96.65 215.86 96.86 215.56 97.19C215.26 97.52 215.1 97.9 215.1 98.34C215.1 98.46 215.17 98.72 215.32 99.15C215.47 99.57 215.94 100.06 216.75 100.63C217.56 101.19 218.36 101.53 219.16 101.63C219.96 101.73 220.5 101.78 220.79 101.78C221.83 101.78 222.89 101.55 223.96 101.09L224.53 101.69L224.44 101.78L222.32 103.76C221.22 104.79 220.28 105.52 219.52 105.94C218.75 106.35 217.92 106.56 217.02 106.56H216.5C216.24 106.5 215.61 106.42 214.61 106.32C213.61 106.22 212.61 105.76 211.61 104.94C210.61 104.12 210.11 103.15 210.11 102.02C210.11 101.3 210.32 100.56 210.74 99.81C211.16 99.06 211.75 98.31 212.5 97.56C213.25 96.81 214.16 96.12 215.24 95.48C216.31 94.85 217.58 94.33 219.06 93.93L219.67 93.8L220.54 93.58L220.55 93.57Z" fill="#9F8B53"/>
<path fill-rule="evenodd" clip-rule="evenodd" d="M233.38 90L232.86 88.95L240.18 84.05C240.41 83.9 240.65 83.83 240.88 83.83C241.2 83.83 241.54 83.98 241.89 84.27C242.21 84.47 242.43 85.13 242.55 86.24L242.68 87.6V89.6L247.41 85.23L247.8 84.93C248.78 84.19 249.51 83.82 249.97 83.82C250.69 83.82 251.35 84.47 251.95 85.76C252.54 87.05 252.9 88.08 253.01 88.84L252.01 89.72L251.01 90.55L247.79 93.03C247.79 92.51 247.56 91.92 247.1 91.27C246.64 90.62 246.27 90.21 245.98 90.03C245.69 89.85 245.42 89.77 245.16 89.77C244.41 89.77 243.9 90.2 243.61 91.05C243.32 91.9 243.14 92.62 243.05 93.2C242.96 93.78 242.92 94.62 242.92 95.72V102.79L241.71 103.57L240.54 104.39L238.84 105.52L237.1 106.69V100.79C237.1 99 237.01 97.07 236.82 95.02C236.63 92.97 236.39 91.51 236.09 90.64C235.78 89.77 235.37 89.34 234.85 89.34C234.56 89.34 234.21 89.46 233.81 89.69L233.38 89.99V90Z" fill="#9F8B53"/>
<path fill-rule="evenodd" clip-rule="evenodd" d="M250.1 76.45L249.76 75.71L254.23 72.54L254.49 72.36L255.65 71.54L256.51 70.98C256.94 70.75 257.37 70.63 257.8 70.63C258.57 70.63 259.03 70.86 259.16 71.33C259.29 71.79 259.37 72.14 259.4 72.37C259.43 72.6 259.46 72.86 259.49 73.15V75.32C259.49 75.78 259.57 78.33 259.73 82.95C259.89 87.57 259.97 90.95 259.97 93.06L260.14 96.54L260.31 99.14V102.46C259.37 102.98 258.35 103.62 257.25 104.36C256.15 105.1 255.1 105.83 254.1 106.52L254.23 104.65V99.13C254.23 96.58 254.18 94.25 254.08 92.16C253.98 90.07 253.87 87.68 253.75 84.99C253.63 82.3 253.58 80.48 253.58 79.52L253.36 77.6C253.19 76.53 252.7 75.99 251.88 75.99C251.53 75.99 251.07 76.08 250.49 76.25L250.09 76.42L250.1 76.45ZM263.65 98.21L260.96 94.78L264.47 91.91C264.67 91.73 264.85 91.57 265.01 91.41C265.17 91.25 265.39 90.97 265.69 90.56C265.98 90.16 266.12 89.77 266.12 89.39C266.12 88.49 265.64 87.9 264.69 87.63C263.73 87.36 263.11 87.23 262.82 87.26L265.73 85.05L266.91 84.09L268.08 83.14L269.08 83.27C269.95 83.47 270.84 83.83 271.77 84.36C272.7 84.88 273.16 85.47 273.16 86.14C273.16 86.92 272.51 87.86 271.2 88.96L266.9 92.61L271.11 97.34C272.36 98.76 273.31 99.75 273.98 100.29C274.64 100.85 275.22 101.12 275.71 101.12C275.8 101.12 275.99 101.09 276.28 101.03L276.8 101.9L273.07 104.9C272.75 105.16 272.43 105.4 272.12 105.61C271.8 105.83 271.47 105.94 271.12 105.94C270.31 105.94 268.6 104.33 265.99 101.12L263.65 98.21Z" fill="#9F8B53"/>
<path fill-rule="evenodd" clip-rule="evenodd" d="M287.41 93.57L288.97 93.22L288.45 92.36C286.8 89.85 285.24 88.59 283.76 88.59C283.27 88.59 282.75 88.75 282.2 89.07L281.85 88.55L284.89 86.04C286.68 84.57 287.96 83.83 288.71 83.83C289.61 83.83 290.85 84.86 292.43 86.92C294.01 88.97 295.46 91.11 296.79 93.32C298.12 95.53 299.66 98.34 301.39 101.72L301.96 102.81L296.57 106.54C296.46 106.13 296.3 105.7 296.09 105.23C295.89 104.77 295.53 103.98 295 102.88C294.48 101.78 293.78 100.75 292.92 99.79C292.05 98.83 291.17 98.14 290.27 97.72C289.38 97.3 288.66 97.02 288.12 96.87C287.59 96.73 287.01 96.62 286.38 96.54C285.76 96.47 285.33 96.43 285.1 96.43C284.64 96.43 284.15 96.47 283.64 96.56C283.13 96.65 282.73 96.86 282.42 97.19C282.12 97.52 281.96 97.9 281.96 98.34C281.96 98.46 282.04 98.72 282.18 99.15C282.33 99.57 282.8 100.06 283.61 100.63C284.42 101.19 285.22 101.53 286.02 101.63C286.82 101.73 287.36 101.78 287.65 101.78C288.69 101.78 289.75 101.55 290.82 101.09L291.38 101.69L291.29 101.78L289.17 103.76C288.07 104.79 287.13 105.52 286.37 105.94C285.6 106.35 284.77 106.56 283.87 106.56H283.35C283.09 106.5 282.46 106.42 281.46 106.32C280.46 106.22 279.46 105.76 278.46 104.94C277.46 104.12 276.96 103.15 276.96 102.02C276.96 101.3 277.17 100.56 277.59 99.81C278.01 99.06 278.6 98.31 279.35 97.56C280.1 96.81 281.01 96.12 282.08 95.48C283.15 94.85 284.43 94.33 285.9 93.93L286.51 93.8L287.38 93.58L287.41 93.57Z" fill="#9F8B53"/>
<path fill-rule="evenodd" clip-rule="evenodd" d="M299.89 90L299.37 89.18L306.32 84.06C306.52 83.91 306.74 83.84 306.97 83.84C307.55 83.84 308.02 84.13 308.38 84.69C308.74 85.26 308.99 85.84 309.14 86.44C309.29 87.04 309.41 87.95 309.53 89.17L309.57 89.43L309.74 92.49L309.78 93.22L309.95 94.96L312.6 91.57C313.67 90.3 314.68 89.16 315.62 88.16C316.56 87.16 317.55 86.2 318.57 85.25C319.6 84.31 320.48 83.84 321.2 83.84C322.1 83.84 322.75 84.4 323.18 85.52C323.6 86.64 324.02 88.2 324.44 90.22C324.86 92.24 325.21 94.39 325.5 96.68L326.07 100.99L326.16 101.68L326.25 102.77L324.91 103.51C323.43 104.44 322.03 105.45 320.7 106.55L320.61 105.94L319.79 99.8C319.56 98.2 319.36 96.97 319.18 96.1C319.01 95.23 318.8 94.53 318.57 93.99C318.34 93.45 318.04 93 317.68 92.64C317.32 92.28 316.92 92.09 316.48 92.09C315.96 92.09 315.29 92.4 314.46 93.01C313.64 93.62 312.58 94.74 311.29 96.36C310 97.99 308.99 99.45 308.27 100.74C307.55 102.03 307.03 103.01 306.73 103.68C306.42 104.35 306.16 104.99 305.93 105.6L305.75 106.03L305.54 106.55H304.32L303.93 97.76L303.67 93.95C303.35 90.92 302.61 89.4 301.46 89.4C301.14 89.4 300.75 89.52 300.29 89.75L299.9 90.01L299.89 90Z" fill="#9F8B53"/>
<path fill-rule="evenodd" clip-rule="evenodd" d="M326.98 81.1L327.38 80.71L333.02 76.46L333.76 76.98C333.27 77.42 333.02 77.89 333.02 78.42C333.02 78.95 333.31 79.5 333.87 80.09C334.44 80.68 335.16 81.21 336.04 81.68C336.92 82.14 337.97 82.63 339.19 83.14C340.41 83.65 341.75 84.19 343.23 84.75C344.71 85.32 345.73 85.75 346.29 86.04C346.85 86.33 347.76 86.97 349 87.95C350.24 88.93 350.87 90.51 350.87 92.69C350.87 93.97 350.58 95.16 350.02 96.28C349.45 97.4 348.83 98.36 348.15 99.17C347.47 99.98 346.69 100.78 345.83 101.56C344.96 102.35 344.28 102.93 343.79 103.32C343.29 103.71 342.62 104.19 341.77 104.75C340.92 105.32 340.09 105.76 339.28 106.08C338.47 106.4 337.63 106.56 336.76 106.56C335.57 106.56 334.46 106.29 333.42 105.75C332.38 105.22 331.31 104.23 330.22 102.79C329.14 101.35 328.6 99.72 328.6 97.89C328.6 94.93 330.19 92.46 333.38 90.49L334.85 89.75L335.37 90.1C334.59 91.37 334.2 92.76 334.2 94.27C334.2 94.76 334.26 95.29 334.37 95.86C334.49 96.43 334.61 96.87 334.74 97.18C334.87 97.5 335.25 98.17 335.89 99.2C336.53 100.23 337.24 100.91 338.04 101.24C338.83 101.58 339.46 101.78 339.91 101.87C340.36 101.96 340.71 102 340.97 102C341.98 102 342.85 101.7 343.57 101.09C344.29 100.48 344.73 99.81 344.88 99.09C345.02 98.37 345.09 97.76 345.09 97.27V96.62C345.03 96.33 344.94 95.73 344.83 94.82C344.72 93.91 344.19 92.93 343.27 91.87C342.34 90.82 341.24 89.99 339.97 89.42C338.7 88.84 337.95 88.51 337.74 88.42C337.52 88.33 336.28 87.89 334.03 87.08C331.77 86.27 330.16 85.67 329.19 85.28C328.22 84.89 327.49 84.5 327.02 84.11C326.54 83.72 326.3 83.25 326.3 82.7C326.3 82.21 326.53 81.69 326.99 81.14L326.98 81.1Z" fill="#9F8B53"/>
</g>
<defs>
<clipPath id="clip0_260_805">
<rect width="350.87" height="112.07" fill="white"/>
</clipPath>
</defs>
</svg>
