<svg width="90" height="113" viewBox="0 0 90 113" fill="none" xmlns="http://www.w3.org/2000/svg">
<path fill-rule="evenodd" clip-rule="evenodd" d="M81.93 104.36V96.66H74.22V33.41C74.22 31.45 74.15 29.68 74.01 28.06V27.37L73.94 27.42C73.23 20.83 71.14 16.8 67.01 12.24C61.76 6.46 51.1 0 51.1 0H41.03C33.8 3.8 27.91 8.11 23.26 13.16C18.62 18.21 15.4 23.97 15.4 34.06V96.66H7.69V104.36H0V112.07H89.64V104.36H81.93ZM69.12 108.15L70.77 110.45H66.55L68.2 108.15L68.66 107.51L68.2 106.87L66.55 104.57H70.77L69.12 106.87L68.66 107.51L69.12 108.15ZM45.28 106.88L43.63 104.58H47.85L46.2 106.88L45.74 107.52L46.2 108.16L47.85 110.46H43.63L45.28 108.16L45.74 107.52L45.28 106.88ZM52.54 96.66V94.54L54.85 96.2L55.49 96.66L56.13 96.2L58.38 94.58V96.66H52.54ZM50.71 58.65L53.39 59.86L54.16 60.21L53.67 60.74L52.09 62.47C51.84 61.18 51.42 59.91 50.71 58.65ZM54.85 70.97L55.49 71.43L56.13 70.97L58.37 69.36C58.37 69.9 58.37 70.46 58.37 71.03V73.51L56.12 71.89L55.48 71.43L54.84 71.89L52.53 73.55V69.31L54.84 70.97H54.85ZM58.38 86.26L56.13 84.64L55.49 84.18L54.85 84.64L52.54 86.3V82.06L54.85 83.72L55.49 84.18L56.13 83.72L58.38 82.1V86.26ZM58.38 93.23L55.49 95.31L52.54 93.19V87.64L55.49 85.52L58.38 87.6V93.23ZM58.38 80.76L55.49 82.83L52.54 80.71V74.89L55.49 72.77L58.38 74.85V80.75V80.76ZM55.49 70.09L52.53 67.96C52.52 67.15 52.5 66.37 52.44 65.62C52.42 65.06 52.37 64.51 52.32 63.96L54.57 61.5L57.95 63.03C58.2 64.52 58.31 66.16 58.36 68.03L55.5 70.09H55.49ZM54.93 60.55L54.16 60.2L54.65 59.66L56.2 57.97C56.2 57.97 56.23 58.01 56.24 58.04C56.58 58.63 56.85 59.23 57.09 59.84C57.34 60.46 57.52 61.12 57.68 61.79L54.92 60.54L54.93 60.55ZM53.76 58.9L49.67 57.05C49.43 56.73 49.18 56.41 48.9 56.09C48.38 55.5 47.86 54.95 47.35 54.44L48.54 52.54L52.99 53.92C53.87 54.79 54.75 55.8 55.54 56.94L53.76 58.89V58.9ZM48.65 51.64L47.73 51.35L47.4 51.88L46.4 53.49C45.27 52.4 44.25 51.52 43.45 50.88H49.34C49.75 51.15 50.53 51.72 51.47 52.51L48.65 51.63V51.64ZM45.74 57.06C47.76 59.12 50.02 63.17 50.02 67.23V96.65H41.46V67.23C41.46 61.25 45.74 57.06 45.74 57.06ZM47.09 107.51L49.2 104.58H54.11L56.22 107.51L54.11 110.44H49.2L47.09 107.51ZM57.1 108.15L57.56 107.51L57.1 106.87L55.45 104.57H59.67L58.02 106.87L57.56 107.51L58.02 108.15L59.67 110.45H55.45L57.1 108.15ZM58.9 107.51L61.01 104.58H65.21L67.32 107.51L65.21 110.44H61.01L58.9 107.51ZM71.2 21.15L67.77 19.72L66.87 19.34L66.5 19.82L64.96 21.86C64.41 20.43 63.71 19.04 62.85 17.67L65.96 18.96L66.86 19.34L67.22 18.85L68.86 16.69C69.83 18.13 70.6 19.58 71.19 21.14L71.2 21.15ZM72.91 33.4V33.74L70.59 32.07L69.95 31.61L69.31 32.07L66.97 33.75C66.94 32.18 66.85 30.69 66.69 29.27L69.31 31.15L69.95 31.61L70.59 31.15L72.8 29.56C72.87 30.75 72.91 32.02 72.91 33.39V33.4ZM72.91 46.88L70.59 45.21L69.95 44.75L69.31 45.21L66.99 46.88V42.63L69.31 44.3L69.95 44.76L70.59 44.3L72.91 42.63V46.88ZM72.91 60.02L70.59 58.35L69.95 57.89L69.31 58.35L66.99 60.02V55.77L69.31 57.44L69.95 57.9L70.59 57.44L72.91 55.77V60.02ZM72.91 73.16L70.59 71.49L69.95 71.03L69.31 71.49L66.99 73.16V68.91L69.31 70.57L69.95 71.03L70.59 70.57L72.91 68.91V73.16ZM72.91 86.3L70.59 84.63L69.95 84.17L69.31 84.63L66.99 86.3V82.05L69.31 83.72L69.95 84.18L70.59 83.72L72.91 82.05V86.3ZM67 96.65V94.53L69.32 96.19L69.96 96.65L70.6 96.19L72.92 94.53V96.65H67.01H67ZM72.91 93.18L69.96 95.3L67.01 93.18V87.64L69.96 85.52L72.91 87.64V93.18ZM72.91 80.71L69.96 82.83L67.01 80.71V74.51L69.96 72.39L72.91 74.51V80.71ZM72.91 67.57L69.96 69.69L67.01 67.57V61.37L69.96 59.25L72.91 61.37V67.57ZM72.91 54.43L69.96 56.55L67.01 54.43V48.23L69.96 46.11L72.91 48.23V54.43ZM72.91 41.29L69.96 43.41L67.01 41.29V35.39C67.01 35.29 67.01 35.19 67.01 35.09L69.97 32.97L72.92 35.09V41.29H72.91ZM69.96 30.27L66.51 27.79C66.28 26.27 65.96 24.83 65.52 23.43L67.66 20.6L71.59 22.24C72.16 24.04 72.52 26.01 72.72 28.29L69.96 30.27ZM66.03 13.12C66.77 13.93 67.43 14.73 68.03 15.52L66.1 18.08L62.01 16.37C61.2 15.23 60.28 14.09 59.21 12.95L59.72 10.36L63.53 10.64C64.44 11.47 65.3 12.3 66.04 13.11L66.03 13.12ZM49.8 5.03L50.46 3.13L54.75 3.93C55.68 4.56 56.69 5.27 57.74 6.04L57.28 8.36L53.85 8.11C52.41 6.94 51.05 5.93 49.8 5.05V5.03ZM57.53 9.37L58.48 9.44L58.59 8.92L58.98 6.95C60.16 7.84 61.35 8.78 62.48 9.74L59.43 9.51L58.48 9.44L58.38 9.96L58.02 11.76C57.4 11.15 56.75 10.53 56.04 9.92C55.75 9.67 55.46 9.44 55.18 9.19L57.54 9.37H57.53ZM50.72 1.3C51.09 1.53 51.77 1.96 52.65 2.53L50.35 2.1L49.43 1.93L49.25 2.44L48.63 4.23C46.69 2.93 45.03 1.97 43.77 1.3H50.72ZM25.87 25.03C27.05 20.94 30.63 16.53 34.01 13.15C37.39 9.77 44.36 5.55 44.36 5.55C51.28 9.32 56.72 14.66 59.78 18.95C62.83 23.24 63.89 27.69 63.89 33.69V39.79C62.83 37.68 61 34.71 58.09 31.91C52.61 26.63 47.44 23.9 47.44 23.9H39.68C39.68 23.9 31.57 28.81 28.28 32.48C26.83 34.09 25.71 35.34 24.78 36.86C24.78 31.09 24.83 28.69 25.88 25.04L25.87 25.03ZM17.49 101.16L15.41 104.06V98.27L17.49 101.16ZM18.38 101.8L18.84 101.16L18.38 100.52L16.54 97.96H21.14L19.3 100.52L18.84 101.16L19.3 101.8L21.14 104.35H16.54L18.38 101.8ZM22.27 82.03L24.62 83.72L25.26 84.18L25.9 83.72L28.22 82.05V86.31L25.9 84.64L25.26 84.18L24.62 84.64L22.27 86.33V82.04V82.03ZM22.27 69.72L24.62 71.41L25.26 71.87L25.9 71.41L28.22 69.74V74.01L25.9 72.33L25.26 71.87L24.62 72.33L22.27 74.02V69.73V69.72ZM22.27 57.41L24.62 59.1L25.26 59.56L25.9 59.1L28.22 57.43V61.69L25.9 60.02L25.26 59.56L24.62 60.02L22.27 61.71V57.42V57.41ZM20.18 101.16L22.26 98.27V104.06L20.18 101.16ZM22.27 87.66L25.25 85.52L28.21 87.65V93.18L25.25 95.31L22.27 93.16V87.66ZM25.25 82.82L22.27 80.68V75.35L25.25 73.2L28.21 75.33V80.69L25.25 82.82ZM25.25 70.51L22.27 68.37V63.04L25.25 60.89L28.21 63.02V68.38L25.25 70.51ZM25.25 58.2L22.27 56.06V55.63C22.27 55.13 22.27 54.64 22.27 54.15C22.27 52.86 22.25 51.6 22.31 50.32L25.4 48.36L28.24 50.69C28.24 50.95 28.23 51.21 28.23 51.46V56.07L25.27 58.2H25.25ZM28.29 49.25L26.15 47.49L25.58 47.02L24.88 47.47L22.38 49.05C22.48 47.73 22.68 46.37 23.02 44.93L25 46.55L25.57 47.02L26.27 46.58L28.92 44.9C28.58 46.41 28.38 47.88 28.29 49.25ZM25.75 45.68L23.33 43.7C23.74 42.27 24.2 41 24.76 39.81C25.17 38.93 25.65 38.08 26.19 37.24L29.81 36.03L31.47 38.25C30.49 39.98 29.79 41.73 29.3 43.44L25.74 45.69L25.75 45.68ZM32.16 37.1L30.85 35.35L30.46 34.82L29.62 35.1L27.07 35.96C27.7 35.11 28.41 34.25 29.23 33.34C29.28 33.27 29.35 33.21 29.42 33.14L30.14 34.32L30.45 34.83L31.37 34.56L34.9 33.55C33.82 34.71 32.91 35.9 32.15 37.1H32.16ZM36.1 32.33L31.34 33.69L30.41 32.16C31.73 30.94 33.41 29.66 35.02 28.51L38.75 27.7L39.24 29.48C38.2 30.34 37.14 31.3 36.1 32.33ZM40.5 28.47L40.14 27.16L39.98 26.53L38.91 26.76L36.94 27.19C38.34 26.25 39.5 25.51 40.03 25.19H45.19C43.95 25.97 42.3 27.07 40.5 28.47ZM25.25 96.64H22.27V94.5L24.62 96.18L25.26 96.64L25.9 96.18L28.22 94.51V96.64H25.26H25.25ZM31.18 65.28V53.11C31.18 46.58 31.9 42.1 36.25 36.98C40.59 31.86 44.14 29.92 44.14 29.92C44.14 29.92 49.1 33.17 52.6 37.83C56.11 42.49 57.09 46.06 57.09 54.78V56.92C54.29 52.42 49.72 49.57 49.72 49.57H41.72C34.48 54.62 31.79 60.15 31.18 65.28ZM41.02 104.57H42.27L44.38 107.5L42.27 110.43H41.02V104.56V104.57ZM74.06 110.44H72.1L69.99 107.51L72.1 104.58H74.06V110.45V110.44Z" fill="#9F8B53"/>
</svg>
