<svg width="206" height="187" viewBox="0 0 206 187" fill="none" xmlns="http://www.w3.org/2000/svg">
<path d="M26.3671 141.203L27.6619 140.454C27.9345 141.544 28.6842 142.566 29.8427 143.452C31.0012 144.406 32.0234 144.883 33.1138 144.883H33.7953C35.1583 144.883 36.2486 144.543 37.0664 143.861C37.8842 143.18 38.2931 142.294 38.2931 141.203C38.2931 140.863 38.2249 140.386 38.0886 139.772C37.9523 139.227 37.6116 138.682 37.0664 138.205C36.5212 137.728 35.5672 137.251 34.136 136.706L33.1138 136.501L26.0264 134.525C25.7538 134.457 25.413 134.32 25.1405 134.116C24.7997 133.912 24.3227 133.571 23.5049 132.957C22.7553 132.344 22.3464 131.39 22.3464 130.027C22.3464 128.869 22.8234 127.642 23.7093 126.347C24.5953 125.12 25.6856 124.098 26.9805 123.212C28.2753 122.394 29.502 121.781 30.5242 121.372C31.5464 120.963 32.6368 120.623 33.7271 120.418C34.8175 120.214 35.8397 120.077 36.7257 120.077C38.4975 120.077 39.7924 120.35 40.7464 121.032C41.7005 121.645 42.1775 122.258 42.1775 122.94C42.1775 123.28 42.0413 123.485 41.7687 123.689L40.4738 124.507L37.2709 126.279L36.7938 125.597C35.499 124.03 34.0679 123.28 32.4323 123.28H32.0234C31.819 123.349 31.4783 123.417 31.0694 123.485C30.5923 123.553 30.1153 123.757 29.6382 124.098C29.1612 124.439 28.8205 124.916 28.5479 125.461C28.3434 126.006 28.2071 126.483 28.2071 126.892C28.2071 127.642 28.5479 128.392 29.2294 129.005C29.9108 129.618 31.0012 130.232 32.5005 130.777L32.7731 130.845L38.9064 132.48C40.6101 132.957 41.8368 133.571 42.7227 134.457C43.5405 135.275 44.0176 136.297 44.0176 137.455C44.0176 138.205 43.8131 138.955 43.4724 139.704C43.1316 140.454 42.6546 141.135 41.9731 141.953C41.3598 142.703 40.6101 143.452 39.7924 144.202C38.9746 144.952 37.9523 145.701 36.6575 146.519C35.3627 147.337 33.9997 147.882 32.5686 148.223C31.1375 148.563 29.8427 148.7 28.8205 148.7C26.5034 148.7 24.7316 148.223 23.6412 147.269C22.5508 146.315 22.0056 145.565 22.0056 145.02C22.0056 144.543 22.3464 143.998 22.9597 143.452C23.7093 142.907 24.7997 142.158 26.3671 141.203Z" fill="#A08B54"/>
<path d="M46.2665 125.257L46.062 124.78C47.1524 123.826 48.2428 122.94 49.4695 122.122L50.6961 121.304L51.2413 121.917C51.7865 122.599 52.2635 123.008 52.6043 123.349C52.945 123.621 53.4221 123.826 53.9672 123.962L50.5598 126.62C50.2191 126.892 49.742 127.029 49.0606 127.029C48.788 127.029 48.5154 126.96 48.1065 126.892C47.6976 126.824 47.425 126.688 47.1524 126.415C46.948 126.211 46.6072 125.802 46.2665 125.257ZM44.4265 133.639L43.8813 132.821L45.9939 131.595C46.8117 131.049 47.6976 130.436 48.5835 129.823C49.5376 129.209 50.0828 128.8 50.2872 128.596C50.5598 128.46 50.7643 128.392 51.0369 128.392C51.105 128.392 51.3095 128.392 51.7183 128.528C52.0591 128.596 52.3317 128.869 52.5361 129.277C52.7406 129.755 52.8769 130.504 52.8769 131.595L53.1495 137.864L53.2858 144.883C52.468 145.36 51.5821 145.906 50.628 146.587C49.6739 147.269 48.7198 147.95 47.8339 148.563L47.7657 142.021C47.7657 138.546 47.6294 136.229 47.3569 135.002C47.0843 133.775 46.5391 133.094 45.7894 133.094C45.5168 133.094 45.108 133.23 44.6991 133.366L44.4265 133.639Z" fill="#A08B54"/>
<path d="M53.9672 122.122L53.6946 121.44L57.6472 118.646L57.8517 118.51L58.8739 117.76L59.6235 117.283C60.0324 117.079 60.3732 117.011 60.7821 117.011C61.4635 117.011 61.8724 117.215 62.0087 117.624C62.145 118.033 62.2132 118.374 62.2132 118.578C62.2132 118.783 62.2813 118.987 62.2813 119.26V119.737V121.168C62.2813 121.577 62.3495 123.826 62.4858 127.914C62.6221 132.003 62.6902 135.002 62.6902 136.842L62.8265 139.909L62.9628 142.226V142.907V145.156C62.145 145.633 61.2591 146.178 60.2369 146.86C59.2828 147.541 58.3287 148.155 57.4428 148.768L57.5109 147.132V142.226C57.5109 139.977 57.5109 137.932 57.3746 136.024C57.3065 134.184 57.1702 132.072 57.102 129.686C57.0339 127.301 56.9657 125.734 56.9657 124.848L56.7613 123.144C56.625 122.19 56.148 121.713 55.4665 121.713C55.1257 121.713 54.7169 121.781 54.2398 121.986L53.9672 122.122Z" fill="#A08B54"/>
<path d="M75.434 141.34L73.0488 138.273L76.1836 135.752C76.388 135.615 76.5243 135.479 76.6606 135.343C76.7969 135.206 77.0014 134.934 77.274 134.593C77.5466 134.184 77.6829 133.912 77.6829 133.571C77.6829 132.821 77.274 132.276 76.388 132.003C75.5703 131.799 74.9569 131.663 74.7525 131.663L77.3421 129.686L78.3643 128.869L79.3866 128.051L80.2725 128.119C81.0221 128.323 81.8399 128.596 82.6577 129.073C83.4755 129.55 83.8844 130.027 83.8844 130.64C83.8844 131.322 83.3392 132.14 82.1806 133.162L78.4325 136.365L82.1125 140.522C83.2029 141.817 84.0888 142.635 84.634 143.18C85.2473 143.657 85.7244 143.929 86.2014 143.929C86.2696 143.929 86.4058 143.929 86.6784 143.861L87.1555 144.611L83.8844 147.2C83.6118 147.405 83.3392 147.678 83.0666 147.814C82.794 148.018 82.5214 148.086 82.1806 148.086C81.4992 148.086 79.9318 146.655 77.6829 143.861L75.434 141.34ZM63.4398 122.122L63.1673 121.44L67.1199 118.646L67.3243 118.51L68.3465 117.76L69.0962 117.283C69.505 117.079 69.8458 117.011 70.2547 117.011C70.9362 117.011 71.3451 117.215 71.4814 117.624C71.6177 118.033 71.6858 118.374 71.6858 118.578C71.6858 118.783 71.7539 118.987 71.7539 119.26V119.737V121.168C71.7539 121.577 71.8221 123.826 71.9584 127.914C72.0947 132.003 72.1628 135.002 72.1628 136.842L72.2991 139.909L72.4354 142.226V142.907V145.156C71.6176 145.633 70.7317 146.178 69.7095 146.86C68.7554 147.541 67.8013 148.155 66.9154 148.768L66.9836 147.132V142.226C66.9836 139.977 66.9154 137.864 66.8473 136.024C66.7791 134.184 66.6428 132.072 66.5747 129.686C66.5065 127.301 66.4384 125.734 66.4384 124.848L66.2339 123.144C66.0976 122.19 65.6206 121.713 64.9391 121.713C64.5984 121.713 64.1895 121.849 63.7124 121.986L63.4398 122.122Z" fill="#A08B54"/>
<path d="M97.514 125.052L94.7199 125.189L95.8785 124.03L97.037 122.872L98.2637 121.781L99.4222 120.691C100.444 120.486 101.262 120.35 102.012 120.214C102.761 120.146 103.443 120.077 104.193 120.077C107.464 120.077 109.644 120.146 110.735 120.214C111.825 120.282 112.984 120.554 114.142 120.895C115.301 121.304 116.459 121.917 117.618 122.94C118.776 123.894 119.322 125.189 119.322 126.688C119.322 128.323 118.844 129.618 117.822 130.572C116.8 131.526 116.187 132.072 115.914 132.276C115.71 132.48 115.301 132.753 114.756 133.094L114.074 133.503L114.756 134.525L115.028 135.002L116.391 137.115L117.754 139.227L118.844 140.795C119.935 142.226 120.753 143.248 121.23 143.725C121.707 144.202 122.116 144.475 122.456 144.475C122.524 144.475 122.729 144.475 122.933 144.406L123.615 145.088L122.661 145.633L118.776 148.155L118.572 148.291C118.299 148.427 117.959 148.563 117.618 148.563C116.868 148.563 116.05 148.018 115.096 146.86C114.142 145.769 112.916 143.998 111.484 141.612C110.053 139.227 108.895 136.978 108.213 134.934L110.735 133.571L111.416 133.162C112.916 132.072 113.597 130.777 113.597 129.414C113.597 128.323 113.188 127.301 112.302 126.483C111.484 125.666 110.599 125.12 109.644 124.984C108.69 124.78 108.009 124.712 107.668 124.712C107.327 124.712 106.987 124.712 106.714 124.712H106.169H105.692V140.386V142.771L105.896 145.156L104.329 146.178L102.761 147.269L101.398 148.223L99.9674 149.177L100.036 146.246C100.036 143.043 100.036 139.977 100.104 136.91C100.104 133.843 100.172 130.64 100.24 127.233V126.552V125.325L97.514 125.052Z" fill="#A08B54"/>
<path d="M127.227 134.797C127.499 134.593 127.772 134.32 128.181 134.116C128.522 133.843 128.93 133.571 129.339 133.366L128.862 134.866C128.522 135.888 128.317 136.842 128.317 137.66C128.317 138.273 128.522 139.227 128.862 140.59C129.271 141.953 130.293 143.112 132.065 144.066L132.815 144.406C133.292 144.611 133.769 144.747 134.11 144.747C135.677 144.747 136.495 143.725 136.767 141.68C136.767 140.726 136.699 139.909 136.563 139.227C136.427 138.546 136.018 137.592 135.405 136.433C134.791 135.274 133.905 134.32 132.815 133.503C131.656 132.753 130.498 132.344 129.135 132.344H128.658H128.181L127.363 132.617L127.227 131.935C127.772 131.526 128.726 130.845 130.157 130.027C131.588 129.209 133.019 128.732 134.45 128.732C135.064 128.732 135.677 128.869 136.359 129.141C136.972 129.414 137.585 129.754 138.13 130.163C138.744 130.64 139.221 131.117 139.63 131.594C140.039 132.14 140.447 132.889 140.856 133.912C141.265 134.934 141.538 136.024 141.538 137.183C141.538 138.477 141.197 139.704 140.584 140.931C139.97 142.157 138.607 143.725 136.563 145.701C134.519 147.677 132.406 148.632 130.293 148.632C128.453 148.632 126.886 147.746 125.523 145.974C124.16 144.202 123.479 142.43 123.479 140.658C123.479 139.432 123.683 138.477 124.228 137.728C124.637 137.046 125.659 136.092 127.227 134.797Z" fill="#A08B54"/>
<path d="M150.874 137.183L152.237 136.91L151.76 136.16C150.329 133.98 148.966 132.821 147.603 132.821C147.126 132.821 146.649 132.957 146.172 133.23L145.899 132.753L148.625 130.504C150.193 129.209 151.351 128.596 152.033 128.596C152.851 128.596 153.873 129.482 155.304 131.322C156.735 133.162 157.962 135.002 159.188 136.978C160.347 138.955 161.71 141.408 163.209 144.406L163.686 145.36L158.916 148.632C158.848 148.291 158.711 147.882 158.507 147.473C158.302 147.064 157.962 146.315 157.485 145.36C157.008 144.406 156.394 143.52 155.645 142.635C154.895 141.817 154.077 141.203 153.328 140.795C152.578 140.454 151.896 140.181 151.419 140.045C150.942 139.909 150.465 139.84 149.92 139.772C149.375 139.704 148.966 139.704 148.762 139.704C148.353 139.704 147.944 139.704 147.467 139.772C146.99 139.84 146.649 140.045 146.376 140.317C146.104 140.59 145.968 140.931 145.968 141.34C145.968 141.408 146.036 141.68 146.172 142.021C146.308 142.362 146.717 142.839 147.467 143.316C148.148 143.793 148.898 144.066 149.579 144.202C150.261 144.27 150.738 144.338 151.011 144.338C151.965 144.338 152.851 144.134 153.805 143.725L154.282 144.27L154.213 144.338L152.305 146.11C151.351 146.996 150.533 147.678 149.852 148.018C149.17 148.359 148.421 148.563 147.671 148.563H147.194C146.922 148.495 146.376 148.427 145.49 148.359C144.605 148.291 143.719 147.882 142.833 147.132C141.947 146.383 141.538 145.565 141.538 144.543C141.538 143.929 141.742 143.248 142.083 142.635C142.492 141.953 142.969 141.34 143.65 140.658C144.332 139.977 145.082 139.363 146.036 138.818C146.99 138.273 148.148 137.796 149.443 137.387L149.988 137.319L150.874 137.183Z" fill="#A08B54"/>
<path d="M162.868 126.211L163.209 125.87L168.184 122.122L168.865 122.599C168.456 122.94 168.184 123.417 168.184 123.894C168.184 124.371 168.456 124.848 168.934 125.393C169.411 125.938 170.092 126.347 170.842 126.824C171.659 127.233 172.545 127.642 173.636 128.119C174.726 128.596 175.885 129.073 177.248 129.55C178.542 130.027 179.428 130.436 179.974 130.709C180.451 130.981 181.268 131.526 182.359 132.412C183.449 133.298 183.994 134.661 183.994 136.637C183.994 137.796 183.722 138.818 183.245 139.772C182.768 140.795 182.222 141.612 181.609 142.294C180.996 143.043 180.314 143.725 179.565 144.406C178.815 145.088 178.202 145.633 177.793 145.974C177.316 146.315 176.771 146.723 176.021 147.2C175.271 147.677 174.522 148.086 173.84 148.359C173.091 148.632 172.341 148.768 171.591 148.768C170.569 148.768 169.547 148.563 168.661 148.086C167.707 147.609 166.753 146.723 165.867 145.429C164.913 144.202 164.436 142.703 164.436 141.135C164.436 138.546 165.867 136.365 168.661 134.593L169.956 133.912L170.433 134.184C169.751 135.343 169.411 136.569 169.411 137.932C169.411 138.341 169.479 138.818 169.547 139.295C169.683 139.772 169.751 140.181 169.888 140.454C170.024 140.726 170.365 141.34 170.91 142.226C171.455 143.18 172.137 143.725 172.818 143.997C173.568 144.27 174.113 144.475 174.522 144.543C174.931 144.611 175.203 144.611 175.476 144.611C176.362 144.611 177.179 144.338 177.793 143.793C178.474 143.248 178.815 142.703 178.951 142.021C179.088 141.34 179.156 140.863 179.156 140.386V139.84C179.088 139.568 179.019 139.091 178.951 138.273C178.883 137.455 178.406 136.569 177.52 135.683C176.702 134.729 175.748 133.98 174.59 133.503C173.431 133.026 172.818 132.685 172.614 132.617C172.409 132.549 171.319 132.14 169.342 131.39C167.366 130.709 165.935 130.163 165.049 129.823C164.231 129.482 163.55 129.141 163.141 128.8C162.732 128.46 162.528 128.051 162.528 127.574C162.255 127.165 162.459 126.688 162.868 126.211Z" fill="#A08B54"/>
<path d="M4.76411 178.344L5.99078 177.595C6.26337 178.685 7.013 179.707 8.17153 180.593C9.33005 181.547 10.3523 182.024 11.4426 182.024H12.1241C13.4871 182.024 14.5775 181.684 15.3953 181.002C16.213 180.321 16.6219 179.435 16.6219 178.344C16.6219 178.004 16.5538 177.526 16.4175 176.913C16.2812 176.368 15.9404 175.823 15.3953 175.346C14.8501 174.869 13.896 174.392 12.4649 173.846L11.6471 173.574L4.42336 171.734C4.15077 171.666 3.81003 171.529 3.53744 171.325C3.19669 171.121 2.71966 170.78 1.90187 170.166C1.15224 169.553 0.743353 168.599 0.743353 167.236C0.743353 166.078 1.22039 164.851 2.10632 163.556C2.99225 162.329 4.08262 161.307 5.37744 160.421C6.67226 159.603 7.89893 158.99 8.92116 158.581C9.94338 158.172 11.0338 157.832 12.1241 157.627C13.2145 157.423 14.2367 157.286 15.1227 157.286C16.8945 157.286 18.2575 157.559 19.1434 158.241C20.0975 158.854 20.5745 159.467 20.5745 160.149C20.5745 160.489 20.4382 160.694 20.1656 160.898L18.8708 161.716L15.6678 163.488L15.1908 162.806C13.896 161.239 12.4649 160.489 10.8293 160.489H10.3523C10.1478 160.558 9.80709 160.626 9.3982 160.694C8.92116 160.762 8.44412 160.966 7.96708 161.307C7.49004 161.648 7.1493 162.125 6.87671 162.67C6.67226 163.215 6.53596 163.692 6.53596 164.101C6.53596 164.851 6.87671 165.601 7.55819 166.214C8.23967 166.827 9.33005 167.441 10.8293 167.986L11.1019 168.054L17.2353 169.689C18.939 170.166 20.1656 170.78 21.0516 171.666C21.8693 172.484 22.3464 173.506 22.3464 174.664C22.3464 175.414 22.1419 176.164 21.8012 176.913C21.4605 177.663 20.9834 178.344 20.3019 179.162C19.6886 179.912 18.939 180.661 18.1212 181.411C17.3034 182.161 16.2812 182.91 14.9864 183.728C13.6915 184.546 12.3286 185.091 10.8975 185.432C9.46634 185.772 8.17153 185.909 7.1493 185.909C4.76411 185.909 3.0604 185.432 1.97002 184.478C0.947798 183.455 0.402611 182.706 0.402611 182.161C0.402611 181.684 0.743353 181.138 1.35669 180.593C2.03817 180.116 3.12855 179.367 4.76411 178.344Z" fill="#A08B54"/>
<path d="M31.819 174.392L33.182 174.119L32.7049 173.369C31.2738 171.189 29.9109 170.03 28.5479 170.03C28.139 169.962 27.662 170.098 27.1849 170.371L26.9123 169.894L29.6383 167.645C31.2057 166.35 32.3642 165.737 33.0457 165.737C33.8635 165.737 34.9538 166.623 36.3168 168.463C37.7479 170.303 38.9746 172.143 40.2013 174.119C41.3598 176.095 42.7227 178.549 44.222 181.547L44.699 182.501L39.9287 185.772C39.8605 185.432 39.7242 185.023 39.5198 184.614C39.3153 184.205 38.9746 183.455 38.4975 182.501C38.0205 181.547 37.4072 180.593 36.6575 179.775C35.9079 178.958 35.0901 178.344 34.2723 177.935C33.5227 177.595 32.8412 177.322 32.3642 177.186C31.9553 177.186 31.4101 177.049 30.8649 176.981C30.3197 176.913 29.9109 176.913 29.7064 176.913C29.2975 176.913 28.8886 176.913 28.4116 176.981C28.0027 177.118 27.662 177.254 27.3894 177.595C27.1168 177.867 26.9805 178.208 26.9805 178.617C26.9805 178.685 27.0486 178.958 27.1849 179.298C27.3212 179.639 27.7301 180.116 28.4797 180.593C29.1612 181.07 29.9108 181.343 30.5923 181.479C31.2738 181.547 31.7509 181.615 32.0234 181.615C32.9775 181.615 33.8635 181.411 34.8175 181.002L35.2946 181.547L35.2264 181.615L33.3183 183.387C32.3642 184.273 31.5464 184.955 30.8649 185.295C30.1834 185.636 29.4338 185.841 28.6842 185.841H28.2071C27.9345 185.772 27.3894 185.704 26.5034 185.636C25.6175 185.568 24.7316 185.159 23.8456 184.409C22.9597 183.66 22.5508 182.842 22.5508 181.888C22.5508 181.207 22.7553 180.593 23.096 179.912C23.4368 179.23 23.9819 178.617 24.6634 177.935C25.3449 177.254 26.0945 176.641 27.0486 176.095C28.0027 175.55 29.1612 175.073 30.456 174.664L31.0012 174.596L31.819 174.392Z" fill="#A08B54"/>
<path d="M43.2679 170.984L42.5864 170.098L45.0398 168.463L47.7657 166.486L48.1065 166.282C48.3109 166.078 48.6516 165.941 49.0605 165.941C49.6057 165.805 50.0828 166.009 50.4917 166.623C50.8324 167.168 51.1731 168.326 51.3094 169.894L51.3776 170.371L51.7865 174.596L51.8546 175.618L54.3761 172.688C55.1257 171.87 55.8754 171.052 56.6932 170.235C57.5109 169.417 58.1924 168.735 58.8057 168.122C59.4191 167.577 59.8961 167.1 60.305 166.759C60.6458 166.418 60.9184 166.214 61.1228 166.009C61.3272 165.873 61.5317 165.805 61.7361 165.805C62.2132 165.805 62.6902 166.009 63.1672 166.418C63.6443 166.827 63.985 167.441 64.1895 168.19C64.5302 169.281 64.8028 170.303 65.0072 171.325C65.2117 172.347 65.2799 173.438 65.2799 174.664L65.348 175.755C66.7791 173.915 68.1421 172.279 69.3687 170.984C70.5954 169.689 71.6176 168.667 72.231 168.054C72.8443 167.441 73.3895 166.963 73.7984 166.623C74.2754 166.282 74.6162 166.078 74.9569 165.941C75.2977 165.805 75.5702 165.737 75.8428 165.737C76.6606 165.737 77.274 166.078 77.5466 166.759C77.8191 167.441 78.0236 168.326 78.2962 169.553C78.5688 170.78 78.7051 171.598 78.7732 172.143C78.8414 172.688 78.9777 173.301 79.114 174.051C79.1821 174.801 79.3184 175.414 79.3866 175.959L79.6592 178.412L79.8636 180.593L80.068 182.501C78.5688 183.455 77.1377 184.341 75.911 185.227L75.5021 185.5L75.1614 185.841L74.9569 183.455C74.6162 180.661 74.3436 178.685 74.1391 177.39C73.9347 176.164 73.6621 175.005 73.2532 173.983C72.9125 172.961 72.2991 172.484 71.4813 172.484C71.0725 172.484 70.5273 172.688 69.9821 173.029C69.4369 173.438 68.8236 173.983 68.1421 174.664C67.4606 175.414 66.711 176.232 66.0295 177.186C65.348 178.14 64.6665 179.026 64.1213 179.98C63.5761 180.934 62.9628 181.888 62.3495 182.91L61.668 184.205L60.9184 184.069L60.7821 182.297C60.5776 180.389 60.4413 179.094 60.3732 178.412C60.305 177.731 60.0324 176.641 59.6917 175.141C59.3509 173.642 58.7376 172.892 57.7154 172.892C57.3065 172.892 56.8976 173.029 56.4887 173.301L55.6709 173.915C54.7168 174.732 53.9672 175.482 53.3539 176.232C52.7405 176.981 51.9228 177.935 51.105 179.298C50.2191 180.593 49.5376 181.752 48.9242 182.774C48.3791 183.796 47.902 184.818 47.4931 185.772H46.3346L46.4027 183.796V177.799C46.4027 175.414 46.2665 173.846 46.1302 173.029C45.9257 172.279 45.6531 171.598 45.2442 171.121C44.8353 170.644 44.4264 170.439 44.1539 170.439C43.745 170.575 43.4724 170.712 43.2679 170.984Z" fill="#A08B54"/>
<path d="M90.631 174.392L91.994 174.119L91.517 173.369C90.0859 171.189 88.7229 170.03 87.3599 170.03C86.8829 170.03 86.4058 170.166 85.9288 170.439L85.6562 169.962L88.3821 167.713C89.9496 166.418 91.1081 165.805 91.7214 165.805C92.5392 165.805 93.5614 166.691 94.9925 168.531C96.4237 170.371 97.6503 172.211 98.877 174.187C100.036 176.164 101.398 178.617 102.898 181.615L103.375 182.569L98.6044 185.841C98.5362 185.5 98.4 185.091 98.1955 184.682C97.9911 184.273 97.6503 183.524 97.1733 182.569C96.6962 181.615 96.0829 180.661 95.3333 179.844C94.5836 179.026 93.7659 178.412 93.0162 178.004C92.2666 177.663 91.5851 177.39 91.1081 177.254C90.631 177.118 90.154 177.049 89.6088 176.981C89.0636 176.913 88.6547 176.913 88.4503 176.913C88.0414 176.913 87.6325 176.913 87.1555 176.981C86.6784 177.049 86.3377 177.254 86.0651 177.526C85.7925 177.799 85.6562 178.14 85.6562 178.549C85.6562 178.617 85.7244 178.889 85.8607 179.23C85.997 179.571 86.4058 180.048 87.1555 180.525C87.837 181.002 88.5866 181.275 89.2681 181.411C89.9496 181.479 90.4266 181.547 90.6992 181.547C91.6533 181.547 92.5392 181.343 93.4933 180.934L93.9703 181.479L93.9022 181.547L91.994 183.319C91.0399 184.205 90.2221 184.887 89.5407 185.227C88.8592 185.568 88.1096 185.772 87.3599 185.772H86.8829C86.6103 185.704 86.0651 185.636 85.1792 185.568C84.2932 185.5 83.4073 185.091 82.5214 184.341C81.6355 183.592 81.2266 182.774 81.2266 181.82C81.2266 181.138 81.431 180.525 81.7717 179.844C82.1125 179.162 82.6577 178.549 83.3392 177.867C84.0206 177.186 84.7703 176.572 85.7244 176.027C86.6784 175.482 87.837 175.005 89.1318 174.596L89.677 174.528L90.631 174.392Z" fill="#A08B54"/>
<path d="M101.944 171.257L101.467 170.303L107.941 166.009C108.145 165.873 108.35 165.805 108.554 165.805C108.827 165.805 109.167 165.941 109.44 166.146C109.713 166.35 109.917 166.895 109.985 167.918L110.121 169.144V169.281V170.916L114.279 167.032L114.619 166.759C115.505 166.078 116.187 165.805 116.596 165.805C117.277 165.805 117.822 166.35 118.367 167.509C118.913 168.667 119.185 169.553 119.322 170.235L118.436 171.052L117.55 171.802L114.687 173.983C114.687 173.506 114.483 173.029 114.074 172.415C113.665 171.87 113.324 171.461 113.12 171.325C112.847 171.121 112.643 171.052 112.37 171.052C111.757 171.052 111.212 171.461 111.007 172.211C110.735 172.961 110.599 173.574 110.53 174.119C110.462 174.664 110.394 175.346 110.394 176.368V178.889V181.275V182.638L109.304 183.319L108.281 184.069L106.782 185.091L105.215 186.113V181.615V180.866C105.215 179.298 105.079 177.595 104.942 175.823C104.738 173.983 104.533 172.756 104.261 171.938C103.988 171.189 103.579 170.78 103.17 170.78C102.898 170.78 102.625 170.916 102.216 171.121L101.944 171.257Z" fill="#A08B54"/>
<path d="M128.658 178.481L126.273 175.414L129.407 172.892C129.612 172.756 129.748 172.62 129.884 172.484C130.021 172.347 130.225 172.075 130.498 171.734C130.77 171.325 130.907 171.052 130.907 170.712C130.907 169.962 130.498 169.417 129.612 169.144C128.794 168.94 128.181 168.804 127.976 168.804L130.566 166.827L131.588 166.009L132.61 165.192L133.496 165.26C134.246 165.464 135.064 165.737 135.882 166.214C136.699 166.691 137.108 167.168 137.108 167.781C137.108 168.463 136.563 169.281 135.405 170.303L131.656 173.506L135.336 177.663C136.427 178.958 137.313 179.775 137.858 180.321C138.471 180.798 138.948 181.07 139.425 181.07C139.493 181.07 139.63 181.07 139.902 181.002L140.379 181.752L137.108 184.41C136.836 184.614 136.563 184.887 136.29 185.023C136.018 185.227 135.745 185.295 135.405 185.295C134.723 185.295 133.156 183.864 130.907 181.07L128.658 178.481ZM116.664 159.263L116.391 158.581L120.344 155.787L120.548 155.651L121.57 154.901L122.32 154.424C122.661 154.22 123.07 154.152 123.479 154.152C124.16 154.152 124.569 154.356 124.705 154.765C124.842 155.174 124.91 155.515 124.91 155.719C124.91 155.923 124.978 156.128 124.978 156.401V156.878V158.309C124.978 158.718 125.046 160.966 125.182 165.055C125.319 169.144 125.387 172.143 125.387 173.983L125.523 177.049L125.659 179.367V180.048V182.297C124.842 182.774 123.887 183.319 122.933 184.001C121.979 184.682 121.025 185.295 120.139 185.909L120.207 184.273V179.367C120.207 177.118 120.139 175.005 120.071 173.165C119.935 171.325 119.867 169.212 119.799 166.827C119.73 164.442 119.662 162.875 119.662 161.989L119.458 160.285C119.321 159.331 118.844 158.854 118.163 158.854C117.822 158.854 117.413 158.922 116.936 159.126L116.664 159.263Z" fill="#A08B54"/>
<path d="M149.648 174.392L151.011 174.119L150.533 173.369C149.102 171.189 147.671 170.03 146.376 170.03C145.899 170.03 145.422 170.166 144.945 170.439L144.673 169.962L147.399 167.713C149.034 166.418 150.125 165.805 150.806 165.805C151.624 165.805 152.646 166.691 154.077 168.531C155.508 170.371 156.735 172.211 157.962 174.187C159.12 176.164 160.483 178.617 161.982 181.615L162.459 182.569L157.689 185.841C157.621 185.5 157.485 185.091 157.28 184.682C157.076 184.273 156.735 183.524 156.258 182.569C155.781 181.615 155.168 180.661 154.418 179.844C153.668 179.026 152.851 178.412 152.101 178.004C151.351 177.663 150.67 177.39 150.193 177.254C149.716 177.118 149.239 177.049 148.693 176.981C148.148 176.913 147.739 176.913 147.603 176.913C147.194 176.913 146.785 176.913 146.308 176.981C145.831 177.049 145.49 177.254 145.218 177.526C144.945 177.799 144.809 178.14 144.809 178.549C144.809 178.617 144.877 178.889 145.013 179.23C145.15 179.571 145.559 180.048 146.308 180.525C146.99 181.002 147.739 181.275 148.421 181.411C149.102 181.479 149.579 181.547 149.852 181.547C150.806 181.547 151.692 181.343 152.646 180.934L153.123 181.479L153.055 181.547L151.147 183.319C150.193 184.205 149.375 184.887 148.693 185.227C148.012 185.568 147.262 185.772 146.513 185.772H146.036C145.763 185.704 145.218 185.636 144.332 185.568C143.446 185.5 142.56 185.091 141.674 184.341C140.788 183.592 140.379 182.774 140.379 181.82C140.379 181.138 140.584 180.525 140.925 179.844C141.265 179.162 141.81 178.549 142.492 177.867C143.105 177.186 143.923 176.572 144.877 176.027C145.831 175.482 146.99 175.005 148.285 174.596L148.83 174.528L149.648 174.392Z" fill="#A08B54"/>
<path d="M160.619 171.189L160.142 170.439L166.276 165.941C166.48 165.805 166.616 165.737 166.821 165.737C167.298 165.737 167.775 166.009 168.048 166.486C168.388 166.963 168.593 167.509 168.729 167.986C168.865 168.531 169.002 169.281 169.07 170.371L169.138 170.644L169.274 173.301V173.983L169.411 175.55L171.728 172.552C172.682 171.393 173.568 170.439 174.385 169.553C175.203 168.667 176.089 167.849 176.975 166.963C177.929 166.146 178.679 165.737 179.292 165.737C180.11 165.737 180.655 166.214 181.064 167.236C181.473 168.19 181.814 169.553 182.154 171.393C182.495 173.165 182.836 175.073 183.108 177.118L183.585 180.934L183.654 181.547L183.722 182.501L182.495 183.183C181.2 184.001 179.974 184.887 178.815 185.909L178.747 185.364L177.997 179.98C177.793 178.549 177.588 177.458 177.452 176.709C177.316 175.959 177.111 175.278 176.907 174.801C176.702 174.324 176.43 173.983 176.089 173.642C175.748 173.301 175.408 173.165 175.067 173.165C174.59 173.165 174.045 173.438 173.295 173.983C172.545 174.528 171.591 175.482 170.501 176.981C169.342 178.412 168.456 179.707 167.843 180.866C167.162 182.024 166.753 182.842 166.48 183.455C166.208 184.069 166.003 184.614 165.799 185.159L165.662 185.568L165.458 186.045H164.368L164.027 178.276L163.959 174.664C163.686 172.006 163.005 170.644 161.982 170.644C161.71 170.644 161.369 170.712 160.96 170.916L160.619 171.189Z" fill="#A08B54"/>
<path d="M184.54 163.352L184.88 163.011L189.855 159.263L190.537 159.74C190.128 160.081 189.855 160.558 189.855 161.035C189.855 161.512 190.128 161.989 190.605 162.534C191.082 163.079 191.763 163.488 192.513 163.965C193.331 164.374 194.217 164.783 195.307 165.26C196.397 165.737 197.556 166.214 198.851 166.691C200.146 167.168 201.031 167.577 201.577 167.849C202.054 168.122 202.871 168.667 203.962 169.553C205.052 170.439 205.597 171.802 205.597 173.778C205.597 174.869 205.325 175.959 204.848 176.913C204.371 177.935 203.826 178.753 203.212 179.435C202.599 180.184 201.917 180.866 201.168 181.547C200.418 182.229 199.805 182.774 199.396 183.115C198.919 183.455 198.374 183.864 197.624 184.341C196.874 184.818 196.125 185.227 195.443 185.5C194.694 185.772 193.944 185.909 193.194 185.909C192.172 185.909 191.15 185.704 190.264 185.227C189.31 184.75 188.356 183.864 187.47 182.638C186.516 181.411 186.039 179.912 186.039 178.344C186.039 175.755 187.47 173.574 190.264 171.802L191.559 171.121L192.036 171.393C191.354 172.552 191.014 173.778 191.014 175.141C191.014 175.55 191.082 176.027 191.15 176.504C191.218 176.981 191.354 177.39 191.491 177.663C191.627 177.935 191.968 178.549 192.513 179.435C193.058 180.389 193.74 180.934 194.421 181.207C195.171 181.479 195.716 181.684 196.125 181.752C196.534 181.82 196.806 181.82 197.079 181.82C197.965 181.82 198.783 181.547 199.396 181.002C200.077 180.457 200.418 179.912 200.554 179.23C200.691 178.549 200.759 178.072 200.759 177.595V177.05C200.691 176.777 200.623 176.3 200.554 175.482C200.486 174.664 200.009 173.778 199.123 172.892C198.306 171.938 197.351 171.189 196.193 170.712C195.034 170.235 194.421 169.894 194.217 169.826C194.012 169.758 192.922 169.349 190.945 168.599C188.969 167.918 187.538 167.372 186.652 167.032C185.834 166.691 185.153 166.35 184.744 166.009C184.335 165.669 184.131 165.26 184.131 164.783C183.926 164.306 184.131 163.829 184.54 163.352Z" fill="#A08B54"/>
<path d="M128.726 97.4522H99.7629V92.0684H128.726V97.4522ZM90.7674 57.5854V46.8861C90.7674 41.0935 91.3807 37.1409 95.197 32.6431C99.0133 28.1453 102.148 26.3734 102.148 26.3734C102.148 26.3734 106.578 29.2356 109.644 33.3927C112.779 37.4816 113.597 40.6164 113.597 48.3172V50.2253C111.144 46.2727 107.123 43.7513 107.123 43.7513H100.036C93.6296 48.249 91.3125 53.0876 90.7674 57.5854ZM88.1096 44.7735V85.3899H82.8621V49.0668V47.772C82.8621 46.6816 82.9303 44.3646 82.9303 43.2742C83.0666 42.1157 83.271 40.889 83.5436 39.6623C83.8162 38.5038 84.4977 35.7779 86.3377 32.8475C86.8829 32.0979 89.4044 28.2816 94.1066 25.1467C95.3333 24.329 98.0592 22.489 98.5363 22.2164H103.102C101.944 22.8979 99.4222 24.7379 97.8548 26.0327C96.9689 26.7823 94.9244 28.7586 94.0385 29.6445C93.0844 30.6668 91.994 32.166 91.0399 33.8016C90.0177 35.369 88.1096 39.7305 88.1096 44.7735ZM82.8621 92.1366H76.8651V86.2758H82.8621V92.1366ZM107.396 59.2891V85.2536H99.8311V59.2891C99.8311 54.0417 103.647 50.3616 103.647 50.3616C105.419 52.1335 107.396 55.7454 107.396 59.2891ZM101.535 44.8416H106.714C108.35 45.7276 114.756 50.975 114.756 57.1765C114.756 58.335 114.824 85.1855 114.824 85.1855H109.576V59.8343C109.576 56.495 108.486 50.975 101.535 44.8416ZM86.0651 22.0801C87.0873 18.4682 90.2903 14.5838 93.2888 11.5852C96.2874 8.58669 102.421 4.90668 102.421 4.90668C108.554 8.24595 113.324 12.9482 116.05 16.6964C118.708 20.5127 119.662 24.3971 119.662 29.7127V35.0964C118.708 33.2564 117.141 30.5986 114.551 28.1453C109.713 23.443 105.147 21.0578 105.147 21.0578H98.2637C98.2637 21.0578 91.1081 25.4193 88.1777 28.6905C86.8829 30.1216 85.9288 31.212 85.111 32.5749C85.111 27.4638 85.111 25.283 86.0651 22.0801ZM107.941 1.15852C117.073 6.67854 121.843 10.7674 124.978 16.3556C126 18.1275 127.567 21.0578 127.567 26.0327C127.567 27.3956 127.704 30.0534 127.704 31.4164V85.3218H122.252V28.2134C122.184 26.7823 122.047 21.8756 118.981 16.9008C115.914 11.8578 110.735 6.67854 101.671 1.22667H107.941V1.15852ZM135.541 92.1366V85.3218H128.726V29.5082C128.726 28.486 128.658 26.9186 128.59 25.6919C128.522 24.806 128.522 24.1927 128.522 24.1927C128.522 24.1927 128.658 18.0593 122.32 10.8356C117.822 5.65631 108.35 0 108.35 0H99.4222C93.0162 3.33927 87.837 7.15558 83.7481 11.5852C79.6592 16.0149 76.7969 21.126 76.7969 30.0534V85.3218H76.5925H69.9821V92.1366H63.2354V98.9514H76.7969H82.2488H96.4237H131.588H142.288V92.1366H135.541Z" fill="#A08B54"/>
</svg>
